<?xml version="1.0" encoding="UTF-8" standalone="no"?>
<!-- Created with Inkscape (http://www.inkscape.org/) -->

<svg
   xmlns:dc="http://purl.org/dc/elements/1.1/"
   xmlns:cc="http://creativecommons.org/ns#"
   xmlns:rdf="http://www.w3.org/1999/02/22-rdf-syntax-ns#"
   xmlns:svg="http://www.w3.org/2000/svg"
   xmlns="http://www.w3.org/2000/svg"
   xmlns:sodipodi="http://sodipodi.sourceforge.net/DTD/sodipodi-0.dtd"
   xmlns:inkscape="http://www.inkscape.org/namespaces/inkscape"
   width="10"
   height="10"
   id="svg2"
   version="1.1"
   inkscape:version="0.48.5 r10040"
   sodipodi:docname="bullet.svg"
   inkscape:export-filename="bullet.png"
   inkscape:export-xdpi="90"
   inkscape:export-ydpi="90">
  <defs
     id="defs4" />
  <sodipodi:namedview
     id="base"
     pagecolor="#ffffff"
     bordercolor="#666666"
     borderopacity="1.0"
     inkscape:pageopacity="0.0"
     inkscape:pageshadow="2"
     inkscape:zoom="39.492569"
     inkscape:cx="5.0359436"
     inkscape:cy="4.8169896"
     inkscape:document-units="px"
     inkscape:current-layer="layer1"
     showgrid="true"
     borderlayer="true"
     inkscape:showpageshadow="false"
     inkscape:snap-bbox="true"
     inkscape:snap-page="false"
     inkscape:snap-grids="true"
     guidetolerance="10000"
     objecttolerance="10000"
     inkscape:window-width="1366"
     inkscape:window-height="702"
     inkscape:window-x="0"
     inkscape:window-y="27"
     inkscape:window-maximized="1">
    <inkscape:grid
       type="xygrid"
       id="grid2985"
       empspacing="5"
       visible="true"
       enabled="true"
       snapvisiblegridlinesonly="true"
       dotted="true"
       spacingx="1px"
       spacingy="1px" />
  </sodipodi:namedview>
  <metadata
     id="metadata7">
    <rdf:RDF>
      <cc:Work
         rdf:about="">
        <dc:format>image/svg+xml</dc:format>
        <dc:type
           rdf:resource="http://purl.org/dc/dcmitype/StillImage" />
        <dc:title></dc:title>
      </cc:Work>
    </rdf:RDF>
  </metadata>
  <g
     inkscape:label="Layer 1"
     inkscape:groupmode="layer"
     id="layer1"
     transform="translate(0,-1042.3622)">
    <path
       style="fill:#999999"
       d="m 2,1042.3622 1,0 0,1 -1,0 z"
       id="rect3761"
       inkscape:connector-curvature="0" />
    <path
       style="fill:#999999"
       d="m 3,1042.3622 1,0 0,1 -1,0 z"
       id="rect3761-4"
       inkscape:connector-curvature="0" />
    <path
       style="fill:#999999"
       d="m 4,1042.3622 1,0 0,1 -1,0 z"
       id="rect3761-7"
       inkscape:connector-curvature="0" />
    <path
       style="fill:#999999"
       d="m 5,1042.3622 1,0 0,1 -1,0 z"
       id="rect3761-71"
       inkscape:connector-curvature="0" />
    <path
       style="fill:#999999"
       d="m 6,1042.3622 1,0 0,1 -1,0 z"
       id="rect3761-0"
       inkscape:connector-curvature="0" />
    <path
       style="fill:#999999"
       d="m 7,1042.3622 1,0 0,1 -1,0 z"
       id="rect3761-3"
       inkscape:connector-curvature="0" />
    <path
       style="fill:#999999"
       d="m 8,1043.3622 1,0 0,1 -1,0 z"
       id="rect3761-3-5"
       inkscape:connector-curvature="0" />
    <path
       style="fill:#999999"
       d="m 9,1044.3622 1,0 0,1 -1,0 z"
       id="rect3761-3-7"
       inkscape:connector-curvature="0" />
    <path
       style="fill:#999999"
       d="m 9,1045.3622 1,0 0,1 -1,0 z"
       id="rect3761-3-8"
       inkscape:connector-curvature="0" />
    <path
       style="fill:#999999"
       d="m 9,1046.3622 1,0 0,1 -1,0 z"
       id="rect3761-3-9"
       inkscape:connector-curvature="0" />
    <path
       style="fill:#999999"
       d="m 9,1047.3622 1,0 0,1 -1,0 z"
       id="rect3761-3-6"
       inkscape:connector-curvature="0" />
    <path
       style="fill:#999999"
       d="m 9,1049.3622 1,0 0,-1 -1,0 z"
       id="rect3761-3-85"
       inkscape:connector-curvature="0" />
    <path
       style="fill:#999999"
       d="m 9,1049.3622 1,0 0,1 -1,0 z"
       id="rect3761-3-2"
       inkscape:connector-curvature="0" />
    <path
       style="fill:#999999"
       d="m 8,1050.3622 1,0 0,1 -1,0 z"
       id="rect3761-3-0"
       inkscape:connector-curvature="0" />
    <path
       style="fill:#999999"
       d="m 7,1051.3622 1,0 0,1 -1,0 z"
       id="rect3761-3-92"
       inkscape:connector-curvature="0" />
    <path
       style="fill:#999999"
       d="m 6,1051.3622 1,0 0,1 -1,0 z"
       id="rect3761-3-3"
       inkscape:connector-curvature="0" />
    <path
       style="fill:#999999"
       d="m 5,1051.3622 1,0 0,1 -1,0 z"
       id="rect3761-3-06"
       inkscape:connector-curvature="0" />
    <path
       style="fill:#999999"
       d="m 4,1051.3622 1,0 0,1 -1,0 z"
       id="rect3761-3-53"
       inkscape:connector-curvature="0" />
    <path
       style="fill:#999999"
       d="m 3,1051.3622 1,0 0,1 -1,0 z"
       id="rect3761-3-73"
       inkscape:connector-curvature="0" />
    <path
       style="fill:#999999"
       d="m 2,1051.3622 1,0 0,1 -1,0 z"
       id="rect3761-3-98"
       inkscape:connector-curvature="0" />
    <path
       style="fill:#999999"
       d="m 1,1050.3622 1,0 0,1 -1,0 z"
       id="rect3761-3-89"
       inkscape:connector-curvature="0" />
    <path
       style="fill:#999999"
       d="m 0,1049.3622 1,0 0,1 -1,0 z"
       id="rect3761-3-75"
       inkscape:connector-curvature="0" />
    <path
       style="fill:#999999"
       d="m 0,1048.3622 1,0 0,1 -1,0 z"
       id="rect3761-3-01"
       inkscape:connector-curvature="0" />
    <path
       style="fill:#999999"
       d="m 0,1047.3622 1,0 0,1 -1,0 z"
       id="rect3761-3-27"
       inkscape:connector-curvature="0" />
    <path
       style="fill:#999999"
       d="m 0,1046.3622 1,0 0,1 -1,0 z"
       id="rect3761-3-54"
       inkscape:connector-curvature="0" />
    <path
       style="fill:#999999"
       d="m 0,1045.3622 1,0 0,1 -1,0 z"
       id="rect3761-3-20"
       inkscape:connector-curvature="0" />
    <path
       style="fill:#999999"
       d="m 0,1044.3622 1,0 0,1 -1,0 z"
       id="rect3761-3-1"
       inkscape:connector-curvature="0" />
    <path
       style="fill:#999999"
       d="m 1,1043.3622 1,0 0,1 -1,0 z"
       id="rect3761-3-017"
       inkscape:connector-curvature="0" />
    <rect
       style="fill:#999999;fill-opacity:0"
       id="rect4012"
       width="1"
       height="1"
       x="0"
       y="8"
       transform="translate(0,1042.3622)"
       inkscape:export-filename="bullet.png"
       inkscape:export-xdpi="90"
       inkscape:export-ydpi="90" />
    <rect
       style="fill:#999999;fill-opacity:0"
       id="rect4014"
       width="1"
       height="1"
       x="8"
       y="9"
       transform="translate(0,1042.3622)"
       inkscape:export-filename="bullet.png"
       inkscape:export-xdpi="90"
       inkscape:export-ydpi="90" />
    <rect
       style="fill:#999999;fill-opacity:0"
       id="rect4014-1"
       width="1"
       height="1"
       x="1"
       y="1051.3622"
       inkscape:export-filename="bullet.png"
       inkscape:export-xdpi="90"
       inkscape:export-ydpi="90" />
    <rect
       style="fill:#999999;fill-opacity:0"
       id="rect4014-3"
       width="1"
       height="1"
       x="0"
       y="1051.3622"
       inkscape:export-filename="bullet.png"
       inkscape:export-xdpi="90"
       inkscape:export-ydpi="90" />
    <rect
       style="fill:#999999;fill-opacity:0"
       id="rect4014-5"
       width="1"
       height="1"
       x="1"
       y="1042.3622"
       inkscape:export-filename="bullet.png"
       inkscape:export-xdpi="90"
       inkscape:export-ydpi="90" />
    <rect
       style="fill:#999999;fill-opacity:0"
       id="rect4014-4"
       width="1"
       height="1"
       x="0"
       y="1042.3622"
       inkscape:export-filename="bullet.png"
       inkscape:export-xdpi="90"
       inkscape:export-ydpi="90" />
    <rect
       style="fill:#999999"
       id="rect4014-6"
       width="1"
       height="1"
       x="1"
       y="1043.3622" />
    <rect
       style="fill:#999999;fill-opacity:0"
       id="rect4014-8"
       width="1"
       height="1"
       x="9"
       y="1042.3622"
       inkscape:export-filename="bullet.png"
       inkscape:export-xdpi="90"
       inkscape:export-ydpi="90" />
    <rect
       style="fill:#999999;fill-opacity:0"
       id="rect4014-2"
       width="1"
       height="1"
       x="8"
       y="1042.3622"
       inkscape:export-filename="bullet.png"
       inkscape:export-xdpi="90"
       inkscape:export-ydpi="90" />
    <rect
       style="fill:#999999;fill-opacity:0"
       id="rect4014-11"
       width="1"
       height="1"
       x="9"
       y="1043.3622"
       inkscape:export-filename="bullet.png"
       inkscape:export-xdpi="90"
       inkscape:export-ydpi="90" />
    <rect
       style="fill:#999999;fill-opacity:0"
       id="rect4014-26"
       width="1"
       height="1"
       x="0"
       y="1043.3622"
       inkscape:export-filename="bullet.png"
       inkscape:export-xdpi="90"
       inkscape:export-ydpi="90" />
    <rect
       style="fill:#999999;fill-opacity:0"
       id="rect4014-20"
       width="1"
       height="1"
       x="9"
       y="1050.3622"
       inkscape:export-filename="bullet.png"
       inkscape:export-xdpi="90"
       inkscape:export-ydpi="90" />
    <rect
       style="fill:#999999;fill-opacity:0"
       id="rect4014-7"
       width="1"
       height="1"
       x="9"
       y="1051.3622"
       inkscape:export-filename="bullet.png"
       inkscape:export-xdpi="90"
       inkscape:export-ydpi="90" />
    <rect
       style="fill:#999999"
       id="rect4014-6-2"
       width="1"
       height="1"
       x="4"
       y="1044.3622" />
    <rect
       style="fill:#999999"
       id="rect4014-6-0"
       width="1"
       height="1"
       x="2"
       y="1044.3622" />
    <rect
       style="fill:#999999"
       id="rect4014-6-22"
       width="1"
       height="1"
       x="6"
       y="1044.3622" />
    <rect
       style="fill:#999999"
       id="rect4014-6-3"
       width="1"
       height="1"
       x="6"
       y="1046.3622" />
    <rect
       style="fill:#999999"
       id="rect4014-6-6"
       width="1"
       height="1"
       x="4"
       y="1046.3622" />
    <rect
       style="fill:#999999"
       id="rect4014-6-1"
       width="1"
       height="1"
       x="2"
       y="1046.3622" />
    <rect
       style="fill:#999999"
       id="rect4014-6-8"
       width="1"
       height="1"
       x="6"
       y="1048.3622" />
    <rect
       style="fill:#999999"
       id="rect4014-6-04"
       width="1"
       height="1"
       x="4"
       y="1048.3622" />
    <rect
       style="fill:#999999"
       id="rect4014-6-04-9"
       width="1"
       height="1"
       x="2"
       y="1048.3622" />
    <rect
       style="fill:#999999"
       id="rect4014-6-04-1"
       width="1"
       height="1"
       x="6"
       y="1050.3622" />
    <rect
       style="fill:#999999"
       id="rect4014-6-04-6"
       width="1"
       height="1"
       x="4"
       y="1050.3622" />
    <rect
       style="fill:#999999"
       id="rect4014-6-04-0"
       width="1"
       height="1"
       x="2"
       y="1050.3622" />
    <rect
       style="fill:#999999"
       id="rect4014-6-04-8"
       width="1"
       height="1"
       x="8"
       y="1046.3622" />
    <rect
       style="fill:#999999"
       id="rect4014-6-04-7"
       width="1"
       height="1"
       x="8"
       y="1044.3622" />
    <rect
       style="fill:#999999"
       id="rect4014-6-04-92"
       width="1"
       height="1"
       x="8"
       y="1048.3622" />
    <rect
       style="fill:#999999"
       id="rect4014-6-04-04"
       width="1"
       height="1"
       x="8"
       y="1048.3622" />
    <rect
       style="fill:#999999"
       id="rect4014-6-04-0-6"
       width="1"
       height="1"
       x="2"
       y="1049.3622" />
    <rect
       style="fill:#999999"
       id="rect4014-6-04-0-64"
       width="1"
       height="1"
       x="1"
       y="1049.3622" />
    <rect
       style="fill:#999999"
       id="rect4014-6-04-0-8"
       width="1"
       height="1"
       x="3"
       y="1049.3622" />
    <rect
       style="fill:#999999"
       id="rect4014-6-04-0-0"
       width="1"
       height="1"
       x="3"
       y="1050.3622" />
    <rect
       style="fill:#999999"
       id="rect4014-6-04-0-7"
       width="1"
       height="1"
       x="5"
       y="1050.3622" />
    <rect
       style="fill:#999999"
       id="rect4014-6-04-0-2"
       width="1"
       height="1"
       x="4"
       y="1049.3622" />
    <rect
       style="fill:#999999"
       id="rect4014-6-04-0-80"
       width="1"
       height="1"
       x="7"
       y="1050.3622" />
    <rect
       style="fill:#999999"
       id="rect4014-6-04-0-3"
       width="1"
       height="1"
       x="7"
       y="1049.3622" />
    <rect
       style="fill:#999999"
       id="rect4014-6-04-0-5"
       width="1"
       height="1"
       x="8"
       y="1049.3622" />
    <rect
       style="fill:#999999"
       id="rect4014-6-04-0-25"
       width="1"
       height="1"
       x="7"
       y="1048.3622" />
    <rect
       style="fill:#999999"
       id="rect4014-6-04-0-76"
       width="1"
       height="1"
       x="7"
       y="1047.3622" />
    <rect
       style="fill:#999999"
       id="rect4014-6-04-0-83"
       width="1"
       height="1"
       x="7"
       y="1046.3622" />
    <rect
       style="fill:#999999"
       id="rect4014-6-04-0-77"
       width="1"
       height="1"
       x="7"
       y="1045.3622" />
    <rect
       style="fill:#999999"
       id="rect4014-6-04-0-33"
       width="1"
       height="1"
       x="7"
       y="1044.3622" />
    <rect
       style="fill:#999999"
       id="rect4014-6-04-0-86"
       width="1"
       height="1"
       x="7"
       y="1043.3622" />
    <rect
       style="fill:#999999"
       id="rect4014-6-04-0-08"
       width="1"
       height="1"
       x="6"
       y="1043.3622" />
    <rect
       style="fill:#999999"
       id="rect4014-6-04-0-79"
       width="1"
       height="1"
       x="5"
       y="1043.3622" />
    <rect
       style="fill:#999999"
       id="rect4014-6-04-0-9"
       width="1"
       height="1"
       x="4"
       y="1043.3622" />
    <rect
       style="fill:#999999"
       id="rect4014-6-04-0-90"
       width="1"
       height="1"
       x="3"
       y="1043.3622" />
    <rect
       style="fill:#999999"
       id="rect4014-6-04-0-4"
       width="1"
       height="1"
       x="2"
       y="1043.3622" />
    <rect
       style="fill:#999999"
       id="rect4014-6-04-0-58"
       width="1"
       height="1"
       x="3"
       y="1044.3622" />
    <rect
       style="fill:#999999"
       id="rect4014-6-04-0-05"
       width="1"
       height="1"
       x="3"
       y="1045.3622" />
    <rect
       style="fill:#999999"
       id="rect4014-6-04-0-088"
       width="1"
       height="1"
       x="3"
       y="1046.3622" />
    <rect
       style="fill:#999999"
       id="rect4014-6-04-0-98"
       width="1"
       height="1"
       x="3"
       y="1047.3622" />
    <rect
       style="fill:#999999"
       id="rect4014-6-04-0-34"
       width="1"
       height="1"
       x="3"
       y="1048.3622" />
    <rect
       style="fill:#999999"
       id="rect4014-6-04-0-28"
       width="1"
       height="1"
       x="4"
       y="-1048.3622"
       transform="scale(1,-1)" />
    <rect
       style="fill:#999999"
       id="rect4014-6-04-0-286"
       width="1"
       height="1"
       x="6"
       y="1047.3622" />
    <rect
       style="fill:#999999"
       id="rect4014-6-04-0-55"
       width="1"
       height="1"
       x="5"
       y="1047.3622" />
    <rect
       style="fill:#999999"
       id="rect4014-6-04-0-51"
       width="1"
       height="1"
       x="5"
       y="1049.3622" />
    <rect
       style="fill:#999999"
       id="rect4014-6-04-0-1"
       width="1"
       height="1"
       x="5"
       y="1048.3622" />
    <rect
       style="fill:#999999"
       id="rect4014-6-04-0-37"
       width="1"
       height="1"
       x="6"
       y="1049.3622" />
    <rect
       style="fill:#999999"
       id="rect4014-6-04-0-14"
       width="1"
       height="1"
       x="8"
       y="1047.3622" />
    <rect
       style="fill:#999999"
       id="rect4014-6-04-0-40"
       width="1"
       height="1"
       x="8"
       y="1045.3622" />
    <rect
       style="fill:#999999"
       id="rect4014-6-04-0-35"
       width="1"
       height="1"
       x="5"
       y="1044.3622" />
    <rect
       style="fill:#999999"
       id="rect4014-6-04-0-29"
       width="1"
       height="1"
       x="5"
       y="1045.3622" />
    <rect
       style="fill:#999999"
       id="rect4014-6-04-0-03"
       width="1"
       height="1"
       x="5"
       y="1046.3622" />
    <rect
       style="fill:#999999"
       id="rect4014-6-04-0-083"
       width="1"
       height="1"
       x="6"
       y="1045.3622" />
    <rect
       style="fill:#999999"
       id="rect4014-6-04-0-88"
       width="1"
       height="1"
       x="4"
       y="1045.3622" />
    <rect
       style="fill:#999999"
       id="rect4014-6-04-0-26"
       width="1"
       height="1"
       x="1"
       y="1048.3622" />
    <rect
       style="fill:#999999"
       id="rect4014-6-04-0-378"
       width="1"
       height="1"
       x="1"
       y="1047.3622" />
    <rect
       style="fill:#999999"
       id="rect4014-6-04-0-11"
       width="1"
       height="1"
       x="1"
       y="-1047.3622"
       transform="scale(1,-1)" />
    <rect
       style="fill:#999999"
       id="rect4014-6-04-0-89"
       width="1"
       height="1"
       x="1"
       y="1044.3622" />
    <rect
       style="fill:#999999"
       id="rect4014-6-04-0-85"
       width="1"
       height="1"
       x="1"
       y="1045.3622" />
    <rect
       style="fill:#999999"
       id="rect4014-6-04-0-796"
       width="1"
       height="1"
       x="2"
       y="1045.3622" />
    <rect
       style="fill:#999999"
       id="rect4014-6-04-0-09"
       width="1"
       height="1"
       x="2"
       y="1047.3622" />
  </g>
</svg>
